<?xml version="1.0" standalone="no"?>
<!DOCTYPE svg PUBLIC "-//W3C//DTD SVG 20010904//EN"
 "http://www.w3.org/TR/2001/REC-SVG-20010904/DTD/svg10.dtd">
<svg version="1.0" xmlns="http://www.w3.org/2000/svg"
 width="10000.000000pt" height="1344.000000pt" viewBox="0 0 10000.000000 1344.000000"
 preserveAspectRatio="xMidYMid meet">

<g transform="translate(0.000000,1344.000000) scale(0.100000,-0.100000)"
fill="#000000" stroke="none">
<path d="M16094 12119 c-465 -14 -858 -65 -1239 -160 -1429 -359 -2275 -1303
-2533 -2824 -66 -384 -86 -654 -86 -1120 0 -714 78 -1259 254 -1785 447 -1335
1455 -2083 3050 -2264 306 -35 416 -39 1283 -43 l877 -4 0 685 0 686 -787 0
c-810 0 -990 7 -1240 44 -1385 210 -2072 1101 -2073 2691 0 774 165 1386 495
1830 361 485 937 783 1681 870 270 31 473 35 1877 35 l1417 0 0 -3420 0 -3420
680 0 680 0 0 4105 0 4105 -2047 -2 c-1127 0 -2157 -5 -2289 -9z"/>
<path d="M21800 8025 l0 -4105 684 0 685 0 4 878 c4 900 6 933 47 1187 188
1162 870 1826 2045 1994 490 70 1064 53 1523 -45 993 -212 1587 -830 1781
-1856 60 -313 71 -538 71 -1425 l0 -733 680 0 680 0 0 4105 0 4105 -680 0
-680 0 0 -1740 0 -1741 -92 64 c-553 383 -1301 608 -2198 662 -1283 78 -2412
-167 -3112 -676 l-68 -49 0 1740 0 1740 -685 0 -685 0 0 -4105z"/>
<path d="M35234 12119 c-592 -17 -1096 -100 -1555 -253 -1133 -378 -1844
-1167 -2144 -2381 -111 -449 -158 -881 -159 -1455 0 -613 54 -1080 179 -1550
395 -1485 1435 -2322 3125 -2514 306 -35 416 -39 1283 -43 l877 -4 0 685 0
686 -787 0 c-810 0 -990 7 -1240 44 -1383 209 -2072 1102 -2073 2688 -1 1548
655 2435 1975 2672 336 60 302 59 1968 63 l1527 4 0 -3421 0 -3420 685 0 685
0 -2 4103 -3 4102 -2050 1 c-1127 0 -2159 -2 -2291 -7z"/>
<path d="M40948 12124 c-5 -4 -8 -312 -8 -685 l0 -678 2273 -4 c2412 -4 2428
-4 2802 -52 781 -101 1294 -320 1555 -666 283 -376 276 -952 -16 -1317 -305
-381 -913 -603 -1864 -678 -192 -16 -455 -18 -2483 -21 l-2267 -4 2 -682 3
-682 2330 -5 c2434 -6 2385 -5 2755 -51 927 -114 1501 -427 1679 -915 66 -181
64 -153 68 -997 l4 -767 686 0 685 0 -5 793 c-5 786 -8 875 -43 1087 -105 632
-416 1135 -926 1497 l-57 40 112 84 c497 372 787 874 882 1528 47 323 32 770
-36 1086 -152 708 -584 1244 -1280 1588 -557 275 -1145 411 -2094 483 -182 14
-515 17 -2480 21 -1248 3 -2273 1 -2277 -3z"/>
<path d="M54374 12119 c-592 -17 -1096 -100 -1555 -253 -1041 -348 -1723
-1041 -2064 -2097 -201 -626 -279 -1404 -224 -2249 89 -1367 586 -2364 1469
-2947 493 -325 1088 -524 1820 -607 306 -35 416 -39 1283 -43 l877 -4 0 685 0
686 -787 0 c-809 0 -990 7 -1238 44 -990 150 -1619 644 -1904 1495 -244 731
-224 1834 46 2516 296 747 875 1191 1758 1349 336 60 302 59 1968 63 l1527 4
0 -3421 0 -3420 685 0 685 0 -2 4103 -3 4102 -2050 1 c-1127 0 -2159 -2 -2291
-7z"/>
<path d="M63890 12119 c-791 -19 -1446 -118 -1995 -304 -1047 -352 -1638
-1005 -1779 -1966 -28 -191 -36 -426 -36 -1131 l0 -697 2313 -4 c1728 -2 2347
-6 2452 -16 764 -67 1254 -204 1605 -449 85 -60 221 -192 275 -267 222 -310
257 -773 84 -1118 -57 -113 -113 -188 -211 -283 -331 -320 -874 -499 -1753
-576 -104 -9 -733 -13 -2452 -15 l-2313 -4 0 -685 0 -685 2303 4 c2340 4 2398
5 2777 43 1662 166 2641 752 2989 1789 153 458 178 1061 65 1571 -267 1204
-1352 1889 -3224 2034 -327 25 -632 30 -2042 30 l-1498 0 0 43 c0 23 7 86 15
140 93 617 655 986 1717 1127 402 53 390 53 2836 57 l2272 4 -2 682 -3 682
-2050 1 c-1127 0 -2183 -3 -2345 -7z"/>
<path d="M69650 11445 l0 -685 1710 0 1710 0 0 -3420 0 -3420 685 0 685 0 0
3420 0 3420 1880 0 1880 0 -2 683 -3 682 -4272 3 -4273 2 0 -685z"/>
<path d="M79570 11446 l0 -685 2268 -4 c2404 -4 2422 -4 2797 -52 557 -71 971
-200 1266 -396 106 -71 266 -224 322 -311 131 -200 186 -412 174 -668 -17
-358 -186 -652 -494 -856 -353 -236 -854 -371 -1594 -431 -179 -14 -478 -17
-2471 -20 l-2268 -4 0 -685 0 -684 2233 0 c1875 0 2270 -2 2463 -15 837 -55
1419 -230 1773 -535 154 -132 273 -323 328 -525 l27 -100 4 -777 3 -778 684 0
685 0 0 733 c0 724 -6 897 -36 1102 -60 408 -206 764 -438 1070 -116 153 -335
362 -487 466 -33 22 -59 43 -59 47 1 4 42 37 93 74 477 348 776 838 881 1443
32 189 40 296 40 540 -1 260 -13 398 -54 602 -240 1199 -1241 1890 -3010 2077
-455 49 -459 49 -2862 53 l-2268 5 0 -686z"/>
<path d="M92995 12119 c-926 -27 -1676 -220 -2276 -584 -378 -229 -712 -554
-950 -925 -365 -567 -567 -1270 -620 -2155 -15 -255 -6 -869 16 -1090 105
-1075 432 -1857 1015 -2434 508 -502 1221 -822 2105 -945 409 -56 631 -66
1543 -66 l772 0 0 684 0 685 -867 4 c-921 5 -969 7 -1253 57 -1052 189 -1679
787 -1895 1810 -102 484 -108 1132 -15 1646 65 361 194 701 363 954 341 511
855 818 1572 939 329 55 290 54 1938 58 l1527 4 0 -3421 0 -3420 685 0 685 0
-2 4103 -3 4102 -2045 1 c-1125 0 -2157 -3 -2295 -7z"/>
<path d="M3695 12109 c-399 -39 -783 -170 -1090 -375 -218 -144 -422 -344
-582 -570 -342 -481 -569 -1164 -668 -2014 -58 -498 -64 -793 -65 -3187 l0
-2043 685 0 684 0 4 2293 c4 2332 4 2357 43 2702 118 1063 458 1658 1032 1806
318 82 667 23 917 -156 73 -52 188 -167 249 -249 250 -337 405 -866 466 -1596
24 -292 30 -756 30 -2722 l0 -2078 680 0 680 0 0 2113 c0 2103 4 2434 36 2767
109 1164 461 1789 1088 1932 128 30 364 30 492 0 570 -130 919 -671 1053
-1632 67 -481 71 -656 71 -3077 l0 -2103 680 0 680 0 0 2238 c0 2223 -2 2409
-35 2777 -134 1492 -617 2461 -1449 2906 -250 133 -486 206 -846 261 -116 18
-684 18 -800 0 -487 -75 -812 -202 -1135 -445 -117 -89 -339 -315 -434 -444
l-83 -112 -55 77 c-391 546 -961 862 -1678 932 -120 11 -524 11 -650 -1z"/>
</g>
</svg>
